HIERARCHY
ROOT Hips
{
	OFFSET	0.000000	0.000000	0.000000
	CHANNELS 6 Xposition Yposition Zposition Zrotation Xrotation Yrotation
	JOINT LeftHip
	{
		OFFSET	4.250000	0.000000	0.000000
		CHANNELS 3 Zrotation Xrotation Yrotation
		JOINT LeftKnee
		{
			OFFSET	0.000000	-17.750000	0.000000
			CHANNELS 3 Zrotation Xrotation Yrotation
			JOINT LeftAnkle
			{
				OFFSET	0.000000	-17.750000	0.000000
				CHANNELS 3 Zrotation Xrotation Yrotation
				End Site
				{
					OFFSET	0.000000	-5.500000	-3.000000
				}
			}
		}
	}
	JOINT RightHip
	{
		OFFSET	-4.250000	0.000000	0.000000
		CHANNELS 3 Zrotation Xrotation Yrotation
		JOINT RightKnee
		{
			OFFSET	0.000000	-17.750000	0.000000
			CHANNELS 3 Zrotation Xrotation Yrotation
			JOINT RightAnkle
			{
				OFFSET	0.000000	-17.750000	0.000000
				CHANNELS 3 Zrotation Xrotation Yrotation
				End Site
				{
					OFFSET	0.000000	-5.500000	-3.000000
				}
			}
		}
	}
	JOINT Chest
	{
		OFFSET	0.000000	4.000000	-2.000000
		CHANNELS 3 Zrotation Xrotation Yrotation
		JOINT LeftCollar
		{
			OFFSET	0.000000	15.500000	2.000000
			CHANNELS 3 Zrotation Xrotation Yrotation
			JOINT LeftShoulder
			{
				OFFSET	8.500000	0.000000	0.000000
				CHANNELS 3 Zrotation Xrotation Yrotation
				JOINT LeftElbow
				{
					OFFSET	0.000000	-11.250000	0.000000
					CHANNELS 3 Zrotation Xrotation Yrotation
					JOINT LeftWrist
					{
						OFFSET	0.000000	-11.000000	0.000000
						CHANNELS 3 Zrotation Xrotation Yrotation
						End Site
						{
							OFFSET	0.000000	-8.000000	0.000000
						}
					}
				}
			}
		}
		JOINT RightCollar
		{
			OFFSET	0.000000	15.500000	2.000000
			CHANNELS 3 Zrotation Xrotation Yrotation
			JOINT RightShoulder
			{
				OFFSET	-8.500000	0.000000	0.000000
				CHANNELS 3 Zrotation Xrotation Yrotation
				JOINT RightElbow
				{
					OFFSET	0.000000	-11.250000	0.000000
					CHANNELS 3 Zrotation Xrotation Yrotation
					JOINT RightWrist
					{
						OFFSET	0.000000	-11.000000	0.000000
						CHANNELS 3 Zrotation Xrotation Yrotation
						End Site
						{
							OFFSET	0.000000	-8.000000	0.000000
						}
					}
				}
			}
		}
		JOINT Neck
		{
			OFFSET	0.000000	15.500000	2.000000
			CHANNELS 3 Zrotation Xrotation Yrotation
			JOINT Head
			{
				OFFSET	0.000000	6.000000	0.000000
				CHANNELS 3 Zrotation Xrotation Yrotation
				End Site
				{
					OFFSET	0.000000	8.500000	0.000000
				}
			}
		}
	}
}
MOTION
Frames:    12
Frame Time: 0.016667
-27.039455	33.314182	14.290910	3.727073	-3.892870	77.390831	17.173971	-39.581062	50.600628	2.000000	65.478531	0.000000	-15.263354	-19.304441	25.219591	-0.882817	-11.994761	-32.906723	-2.000000	71.696625	0.000000	11.280226	-26.128506	-18.401890	14.700356	6.205506	4.421793	14.089919	-7.069273	-20.958588	83.118507	7.973868	34.389111	-3.000000	-47.356194	0.000000	7.023545	8.494430	49.061264	12.343544	3.876240	21.741407	-25.152016	-13.617527	-74.112045	3.000000	-50.238338	0.000000	-13.243625	-5.471438	-87.498711	11.259892	13.272677	-1.946619	8.600256	-16.950432	1.255713	
-26.642879	33.402588	14.149271	3.911806	-3.901539	78.155594	14.680531	-39.425758	47.673824	2.000000	65.105354	0.000000	-12.476004	-21.119223	24.290594	-0.387019	-11.814246	-32.957249	-2.000000	71.687057	0.000000	11.379299	-26.124212	-19.420879	14.881371	5.567131	5.971924	12.774837	-7.322489	-20.945690	84.901909	8.914987	36.300442	-3.000000	-50.164230	0.000000	7.688938	12.755719	55.365135	11.557042	2.803883	21.964867	-23.860453	-16.258764	-72.125771	3.000000	-50.253044	0.000000	-13.114107	-5.390626	-87.628197	10.026763	12.944230	-1.735047	7.859284	-17.210882	1.321870	
-25.907669	33.704163	14.448305	4.160786	-3.809230	78.822433	11.976224	-39.144798	43.250496	2.000000	64.700546	0.000000	-7.111137	-21.552063	24.138319	0.026500	-11.539599	-32.863201	-2.000000	71.815178	0.000000	11.044552	-26.073250	-20.166164	15.123588	5.414816	6.245691	11.277609	-7.594760	-20.959202	85.449753	9.556272	38.891178	-3.000000	-53.306919	0.000000	7.430744	17.584742	61.946499	10.656864	1.591882	22.180246	-22.749987	-18.670362	-70.026619	3.000000	-50.744995	0.000000	-12.854650	-5.231662	-87.888451	8.827258	12.390953	-1.528424	7.255714	-17.648399	1.476530	
-25.691393	33.777020	14.650869	4.527946	-3.586930	79.505775	9.237212	-39.075848	39.606697	2.000000	64.067314	0.000000	-1.437662	-22.874933	23.981493	0.276514	-10.985505	-32.796787	-2.000000	72.103767	0.000000	10.808604	-25.883919	-20.975023	15.532825	5.027092	8.554456	9.484522	-7.503780	-21.082531	85.439476	9.981289	43.019108	-3.000000	-56.785236	0.000000	6.248026	23.037855	68.523163	9.300016	0.439691	22.316566	-21.630054	-21.095097	-67.143959	3.000000	-51.394253	0.000000	-12.127029	-5.203937	-87.822113	7.513332	11.371981	-1.301472	6.785555	-18.496378	1.790875	
-25.504601	33.613850	14.582014	4.936832	-3.333727	79.974602	6.654316	-39.297695	34.671299	2.000000	64.787354	0.000000	-3.266652	-25.623529	21.692644	0.279673	-10.429848	-32.779785	-2.000000	72.165993	0.000000	11.033222	-25.689610	-22.043974	15.848153	5.039221	10.611960	8.051906	-7.379889	-21.198483	85.084824	10.229828	47.714188	-3.000000	-59.849289	0.000000	4.236982	28.406055	73.188339	8.184196	-0.448156	22.386093	-20.547468	-22.795784	-63.294468	3.000000	-51.918392	0.000000	-10.996003	-5.330372	-87.357559	6.056548	10.066508	-1.049812	6.234302	-19.720581	2.085412	
-25.094402	33.499241	14.658032	5.469401	-2.954062	80.465477	4.161245	-39.456676	29.947399	2.000000	65.903656	0.000000	-3.841467	-26.744764	21.138283	0.280687	-10.244628	-32.774136	-2.000000	73.093994	0.000000	10.802738	-25.814932	-22.321085	15.848153	5.039221	13.190086	5.997655	-6.841512	-21.418247	84.254601	10.286053	53.208088	-3.000000	-63.412201	0.000000	3.045067	33.477558	74.477783	6.338243	-1.467273	22.389788	-20.012089	-24.158892	-58.420311	3.000000	-52.313427	0.000000	-9.523492	-5.615603	-86.415413	4.654545	9.022681	-0.807501	5.368612	-20.852207	2.073382	
-25.056152	33.481712	14.373423	6.094916	-2.500320	80.871429	2.054723	-39.178684	27.942524	2.000000	65.514122	0.000000	-3.269153	-25.747049	21.152016	0.038423	-9.687665	-32.798477	-2.000000	74.089523	0.000000	11.397494	-25.711987	-22.189638	16.084642	5.048474	16.284075	3.992975	-6.400826	-21.614819	82.591629	10.106680	59.660107	-3.000000	-67.258736	0.000000	2.584098	37.870594	72.415657	4.596700	-2.530425	22.363644	-19.748598	-25.561941	-53.163830	3.000000	-52.622345	0.000000	-7.963897	-5.837120	-85.414192	3.000618	8.214355	-0.521070	3.805484	-21.859640	1.612942	
-25.014130	33.529427	14.245736	6.714572	-1.878672	81.411263	-0.033956	-38.861931	26.451162	2.000000	64.834290	0.000000	-1.956293	-24.369184	24.453001	-0.781997	-10.052224	-32.954220	-2.000000	75.614098	0.000000	12.241682	-25.344549	-22.023363	16.468971	5.305693	18.836548	2.171409	-5.506214	-21.815434	81.293060	9.742593	65.600594	-3.000000	-71.335922	0.000000	3.196794	41.627350	67.710571	2.669948	-3.146408	22.256561	-19.750092	-26.491165	-48.152905	3.000000	-52.360775	0.000000	-6.507777	-5.694957	-85.231346	1.365175	7.718338	-0.237226	1.841905	-22.537054	0.821256	
-24.738764	33.515179	13.898771	7.289027	-1.029804	82.160980	-2.616941	-38.413536	24.833950	2.000000	64.526985	0.000000	-2.430974	-23.351782	28.132343	-1.447943	-11.063440	-33.130676	-2.000000	77.272659	0.000000	12.790421	-24.134869	-20.976416	16.705320	5.315295	22.011015	0.296469	-4.321113	-21.990499	79.796043	8.940293	71.084061	-3.000000	-75.097115	0.000000	5.882058	45.211647	60.702885	0.499937	-3.595073	22.114511	-20.925756	-27.243589	-42.240055	3.000000	-52.121304	0.000000	-5.118726	-5.902143	-84.740402	0.179697	7.721092	-0.031229	0.242308	-22.554810	0.108085	
-24.385555	33.568073	13.708085	7.755063	-0.416157	82.979111	-4.522254	-36.998699	23.698774	2.000000	63.903641	0.000000	-2.902321	-24.783709	28.493380	-2.362236	-11.790923	-33.361298	-2.000000	80.563560	0.000000	13.563953	-18.719606	-18.930437	17.246508	5.579700	25.068344	-1.348092	-3.221908	-22.098686	78.834534	7.933399	74.439812	-3.000000	-78.463066	0.000000	10.034209	47.342587	53.597385	-1.447669	-3.947636	21.986395	-22.435726	-28.107862	-36.736149	3.000000	-50.688694	0.000000	-4.116402	-6.992032	-83.927559	-0.107819	7.721123	0.018737	-0.145384	-22.555014	-0.064851	
-23.644501	33.791447	13.797754	8.590911	0.048442	84.256035	-5.636896	-34.932816	23.132862	2.000000	63.573009	0.000000	-2.307508	-24.049852	30.032066	-3.297705	-13.251807	-33.685951	-2.000000	82.790863	0.000000	14.474081	-12.547295	-18.471212	17.769329	6.247246	27.321764	-2.914650	-2.150858	-22.158808	78.731247	7.069633	77.044373	-3.000000	-80.131615	0.000000	14.487128	48.911533	47.822514	-3.321810	-4.266089	21.865475	-24.133060	-29.007799	-30.608582	3.000000	-49.507092	0.000000	-2.693916	-8.140209	-82.784180	0.108823	7.864320	-0.018910	0.144060	-22.375950	0.063402	
-23.375410	33.871098	13.462085	9.338446	0.266824	85.642624	-7.207603	-33.303143	22.352444	2.000000	62.685791	0.000000	-1.440889	-23.619034	29.907547	-3.522622	-15.646205	-32.350655	-2.000000	85.202126	0.000000	15.392108	-5.641619	-17.146700	18.622927	6.527218	28.729940	-4.391037	-1.288901	-22.187666	79.502464	6.793540	78.248535	-3.000000	-81.787094	0.000000	19.062071	50.734379	42.998848	-4.987287	-4.670710	21.751162	-25.456903	-30.303831	-24.690229	3.000000	-47.946316	0.000000	-0.655277	-8.909290	-82.343529	0.366913	8.044914	-0.063750	0.474739	-22.152828	0.205308	
